<?xml version="1.0" standalone="no"?>
<!DOCTYPE svg PUBLIC "-//W3C//DTD SVG 20010904//EN"
 "http://www.w3.org/TR/2001/REC-SVG-20010904/DTD/svg10.dtd">
<svg version="1.0" xmlns="http://www.w3.org/2000/svg"
 width="197.000000pt" height="49.000000pt" viewBox="0 0 197.000000 49.000000"
 preserveAspectRatio="xMidYMid meet">

<g transform="translate(0.000000,49.000000) scale(0.100000,-0.100000)"
fill="#fff" stroke="none">
<path d="M185 315 c-34 -33 -34 -87 0 -120 74 -75 180 35 114 119 -28 35 -80
36 -114 1z m79 -11 c21 -8 22 -77 1 -94 -8 -7 -25 -10 -40 -6 -21 5 -25 12
-25 44 0 53 22 72 64 56z"/>
<path d="M350 255 c0 -69 3 -85 15 -85 12 0 15 14 15 68 l1 67 35 -67 c25 -50
40 -68 54 -68 18 0 20 7 20 85 0 69 -3 85 -15 85 -12 0 -15 -14 -15 -67 l0
-68 -32 68 c-25 55 -35 67 -55 67 -22 0 -23 -3 -23 -85z"/>
<path d="M530 255 l0 -85 50 0 c38 0 50 4 50 15 0 10 -11 15 -35 15 -31 0 -35
3 -35 25 0 21 5 25 30 25 20 0 30 5 30 15 0 10 -10 15 -30 15 -20 0 -30 5 -30
15 0 10 11 15 35 15 24 0 35 5 35 15 0 11 -12 15 -50 15 l-50 0 0 -85z"/>
<path d="M720 255 c0 -69 3 -85 15 -85 10 0 15 10 15 30 0 25 4 30 23 30 31 0
57 29 57 63 0 31 -25 47 -74 47 l-36 0 0 -85z m75 30 c0 -13 -8 -21 -22 -23
-19 -3 -23 1 -23 23 0 22 4 26 23 23 14 -2 22 -10 22 -23z"/>
<path d="M860 255 c0 -69 3 -85 15 -85 12 0 15 16 15 85 0 69 -3 85 -15 85
-12 0 -15 -16 -15 -85z"/>
<path d="M930 255 l0 -85 50 0 c38 0 50 4 50 15 0 10 -11 15 -35 15 -31 0 -35
3 -35 25 0 21 5 25 30 25 20 0 30 5 30 15 0 10 -10 15 -30 15 -20 0 -30 5 -30
15 0 10 11 15 35 15 24 0 35 5 35 15 0 11 -12 15 -50 15 l-50 0 0 -85z"/>
<path d="M1075 316 c-34 -34 -34 -88 0 -121 27 -28 76 -33 95 -10 13 16 9 18
-28 15 -33 -2 -52 18 -52 55 0 39 21 59 55 52 20 -3 25 -1 23 12 -5 28 -64 26
-93 -3z"/>
<path d="M1200 255 l0 -85 50 0 c38 0 50 4 50 15 0 10 -11 15 -35 15 -31 0
-35 3 -35 25 0 21 5 25 30 25 20 0 30 5 30 15 0 10 -10 15 -30 15 -20 0 -30 5
-30 15 0 10 11 15 35 15 24 0 35 5 35 15 0 11 -12 15 -50 15 l-50 0 0 -85z"/>
<path d="M1390 255 l0 -85 45 0 c59 0 95 32 95 85 0 53 -36 85 -95 85 l-45 0
0 -85z m97 29 c15 -24 15 -29 2 -53 -9 -16 -25 -27 -42 -29 -27 -3 -27 -2 -27
52 0 53 1 56 25 56 15 0 31 -10 42 -26z"/>
<path d="M1560 255 l0 -85 50 0 c38 0 50 4 50 15 0 10 -11 15 -35 15 -31 0
-35 3 -35 25 0 21 5 25 30 25 20 0 30 5 30 15 0 10 -10 15 -30 15 -20 0 -30 5
-30 15 0 10 11 15 35 15 24 0 35 5 35 15 0 11 -12 15 -50 15 l-50 0 0 -85z"/>
<path d="M1699 258 c24 -72 31 -83 51 -83 20 0 27 11 51 83 25 75 26 82 10 82
-14 0 -22 -16 -36 -65 -9 -36 -21 -63 -25 -60 -4 2 -15 32 -24 65 -13 46 -21
60 -36 60 -18 0 -17 -5 9 -82z"/>
</g>
</svg>
